{"title":"Hall Pass 2011 TS XViD DTRG SAFCuk009","uid":6227373,"size":1515800922,"categoryP":"video","categoryS":"movies","magnet":"?xt=urn:btih:29a787cb31f3f336877e72499d4fc74e5b1c0315&amp;dn=Hall+Pass+2011+TS+XViD+DTRG+SAFCuk009&amp;tr=udp%3A%2F%2Ftracker.openbittorrent.com%3A80&amp;tr=udp%3A%2F%2Fopen.demonii.com%3A1337&amp;tr=udp%3A%2F%2Ftracker.coppersurfer.tk%3A6969&amp;tr=udp%3A%2F%2Fexodus.desync.com%3A6969","seeders":1,"leechers":0,"uploader":"SAFCukO09","files":3,"time":1299570097,"description":"Format : AVI\nFormat/Info : Audio Video Interleave\nFile size : 1.41 GiB\nDuration : 1h 33mn\nOverall bit rate : 2 172 Kbps\nWriting library : VirtualDub build 32839/release\n\nVideo\nID : 0\nFormat : MPEG-4 Visual\nFormat profile : Advanced Simple@L5\nFormat settings, BVOP : Yes\nFormat settings, QPel : No\nFormat settings, GMC : No warppoints\nFormat settings, Matrix : Custom\nCodec ID : XVID\nCodec ID/Hint : XviD\nDuration : 1h 33mn\nBit rate : 2 034 Kbps\nWidth : 688 pixels\nHeight : 304 pixels\nDisplay aspect ratio : 2.25:1\nFrame rate : 25.000 fps\nColor space : YUV\nChroma subsampling : 4:2:0\nBit depth : 8 bits\nScan type : Progressive\nBits/(Pixel*Frame) : 0.389\nStream size : 1.32 GiB (94%)\nWriting library : XviD 1.2.1 (UTC 2008-12-04)\n\nAudio\nID : 1\nFormat : MPEG Audio\nFormat version : Version 1\nFormat profile : Layer 3\nMode : Joint stereo\nMode extension : MS Stereo\nCodec ID : 55\nCodec ID/Hint : MP3\nDuration : 1h 33mn\nBit rate mode : Constant\nBit rate : 128 Kbps\nChannel(s) : 2 channels\nSampling rate : 44.1 KHz\nStream size : 85.2 MiB (6%)\nAlignment : Split accross interleaves\nInterleave, duration : 40 ms (1.00 video frame)\nInterleave, preload duration : 500 ms\n\n\n\n &lt;a href=&quot;\nhttp://www.imdb.com/title/tt0480687/&quot; rel=&quot;nofollow&quot; target=&quot;_NEW&quot;&gt;\nhttp://www.imdb.com/title/tt0480687/&lt;/a&gt;\n\n\n\n\n\n\n\nUsers: 5.9/10 (1,639 votes) 24 reviews | Critics: 53 reviews Metascore: 45/100 (based on 34 reviews from Metacritic.com)\n\nA married man is granted the opportunity to have an affair by his wife. Joined in the fun by his best pal, things get a little out of control when both wives start engaging in extramarital activities as well.\nDirectors:\nBobby Farrelly, Peter Farrelly\nWriters:\nPete Jones (screenplay), Peter Farrelly (screenplay), and 3 more credits Ã‚Â»\nStars:\nOwen Wilson, Jason Sudeikis and Christina Applegate ","torrent":{"xt":"urn:btih:29a787cb31f3f336877e72499d4fc74e5b1c0315","amp;dn":"Hall+Pass+2011+TS+XViD+DTRG+SAFCuk009","amp;tr":["udp%3A%2F%2Ftracker.openbittorrent.com%3A80","udp%3A%2F%2Fopen.demonii.com%3A1337","udp%3A%2F%2Ftracker.coppersurfer.tk%3A6969","udp%3A%2F%2Fexodus.desync.com%3A6969"],"infoHash":"29a787cb31f3f336877e72499d4fc74e5b1c0315","infoHashBuffer":{"type":"Buffer","data":[41,167,135,203,49,243,243,54,135,126,114,73,157,79,199,78,91,28,3,21]},"announce":[],"urlList":[]}}